<?xml version="1.0" encoding="UTF-8"?>
<svg version="1.1" xmlns="http://www.w3.org/2000/svg" width="2481" height="3508">
<path d="M0 0 C0.83917969 0.74894531 1.67835938 1.49789062 2.54296875 2.26953125 C15.62607227 14.52133319 23.13911714 31.22291567 27.75 48.3125 C27.93651123 48.99715332 28.12302246 49.68180664 28.31518555 50.38720703 C32.13794224 65.58562329 33.63542157 81.36846573 35.0625 96.9375 C35.18848572 98.30233017 35.18848572 98.30233017 35.3170166 99.69473267 C35.90632913 106.12750379 36.46263344 112.56269684 37 119 C37.06378845 119.75369873 37.1275769 120.50739746 37.19329834 121.28393555 C40.85858574 165.03775795 40.7700217 210.25872429 37 254 C36.93683594 254.74805908 36.87367188 255.49611816 36.80859375 256.2668457 C31.26344365 321.5242923 18.57621628 385.763124 -2.28765869 447.87792969 C-2.97093815 449.91342452 -3.64877733 451.95065978 -4.32568359 453.98828125 C-31.21765028 534.59839954 -68.993744 618.51569161 -121 686 C-121.41185547 686.53802246 -121.82371094 687.07604492 -122.24804688 687.63037109 C-134.23609573 703.26440924 -147.32806833 717.82549221 -161 732 C-162.10964111 733.15266357 -162.10964111 733.15266357 -163.24169922 734.32861328 C-172.59377554 743.99635464 -181.98577133 753.23597648 -193 761 C-193.56638184 761.40009277 -194.13276367 761.80018555 -194.71630859 762.21240234 C-211.65196118 773.99434831 -233.90932684 784.91698579 -255 784 C-251.88695356 777.18406674 -248.14530508 770.88396159 -244.13378906 764.57446289 C-241.77681516 760.86022361 -239.46825331 757.1287765 -237.24609375 753.33203125 C-231.43628188 743.40914919 -225.25774991 733.8848839 -218.63305664 724.48657227 C-163.07751152 645.53373343 -118.70144467 559.59866905 -48.8125 139.6875 C-48.84734497 138.77349426 -48.88218994 137.85948853 -48.91809082 136.91778564 C-49.41191895 124.42949021 -50.71901266 112.28974741 -53 100 C-53.21261475 98.84459717 -53.42522949 97.68919434 -53.64428711 96.4987793 C-54.21293839 93.64322527 -54.8662117 90.82672264 -55.5625 88 C-55.84577148 86.59234375 -55.84577148 86.59234375 -56.13476562 85.15625 C-56.82296539 82.4113386 -57.42575156 80.35534656 -59 78 C-62.2393853 76.29717154 -65.39362662 75.53168978 -69 75 C-69.22429687 75.66128906 -69.44859375 76.32257813 -69.6796875 77.00390625 C-71.73635384 81.6709568 -74.65614975 85.74055587 -77.484375 89.97070312 C-79.01895745 92.29615278 -80.51402286 94.64317838 -82 97 C-82.93549683 98.45575439 -82.93549683 98.45575439 -83.88989258 99.94091797 C-90.1230683 110.1538588 -93.73901186 120.91706069 -97.4375 132.25 C-98.12823532 134.32815792 -98.82057469 136.40578327 -99.5144043 138.48291016 C-100.96129964 142.81832889 -102.40132773 147.1559414 -103.83691406 151.49511719 C-105.90766829 157.73993524 -108.01990706 163.96997987 -110.1484375 170.1953125 C-110.49041168 171.19561493 -110.83238586 172.19591736 -111.1847229 173.22653198 C-111.8785025 175.25539784 -112.57236053 177.28423689 -113.26629639 179.31304932 C-121.91366485 204.62152219 -130.36356574 229.99579166 -138.79888916 255.37554932 C-140.93766428 261.80980746 -143.08136908 268.242365 -145.234375 274.671875 C-147.88569461 282.59051844 -150.52304309 290.51371842 -153.15087891 298.44018555 C-154.0812667 301.24499175 -155.01335068 304.04923206 -155.9453125 306.85351562 C-185.46462077 395.76032856 -211.53747152 485.63135982 -257.15562439 687.20733643 C-261.70896684 708.31653928 -266.32116689 729.41283004 -270.93558502 750.50875092 C-272.5286513 757.7922342 -274.12084684 765.07590776 -275.7126255 772.35967255 C-276.39476982 775.48036376 -277.07741071 778.60094608 -277.76065159 781.7213974 C-278.07194621 783.14782178 -278.38153684 784.57461924 -278.68930721 786.00180817 C-279.38446669 789.22197468 -280.10331683 792.42930202 -280.87423706 795.63262939 C-282.89884255 804.25518434 -283.52990101 812.53144522 -283.6875 821.375 C-283.72080161 822.70836394 -283.75530219 824.04169848 -283.79101562 825.375 C-283.87238424 828.58324813 -283.94188696 831.79126106 -284 835 C-283.22485046 834.80621262 -282.44970093 834.61242523 -281.65106201 834.4127655 C-276.5018514 833.12546285 -271.35264079 831.8381602 -266.20343018 830.55085754 C-265.48902393 830.37225598 -264.77461769 830.19365442 -264.03856277 830.00964069 C-227.23730469 820.80932617 -227.23730469 820.80932617 -223.54219055 819.8866272 C-221.2016554 819.30078008 -218.86178596 818.71226623 -216.52262878 818.12094116 C-215.45547134 817.85165802 -214.3883139 817.58237488 -213.28881836 817.30493164 C-211.8895536 816.95030602 -211.8895536 816.95030602 -210.46202087 816.58851624 C-199.7121886 814.01889918 -186.13628774 812.83623077 -176 818 C-164.47690153 825.71289256 -161.88051735 835.88659681 -159.09594727 848.72802734 C-156.96683093 858.07160756 -153.21592419 866.43215406 -149 875 C-146.126838 868.8513932 -143.69144896 862.59092279 -141.34936523 856.22314453 C-136.13266512 842.07094595 -130.24562036 828.39557066 -123.77392578 814.76464844 C-121.77461619 810.53734312 -119.82193748 806.28890324 -117.87109375 802.0390625 C-108.40774318 781.42945641 -98.80984386 760.88759071 -89.05355835 740.41497803 C-86.87669822 735.84667065 -84.71180205 731.27297683 -82.5546875 726.6953125 C-63.42957667 686.2349057 -37.94495558 646.87616413 6.22265625 630.93017578 C22.18674891 625.4015022 40.10048291 624.47213808 55.71484375 631.6640625 C63.94817611 635.68477631 70.43531065 640.5749849 77 647 C78.38856529 648.19599054 79.78404065 649.38402268 81.1875 650.5625 C85.1927524 654.0375255 88.61530521 657.92778908 92 662 C97.37734286 652.74630701 102.4094227 643.33779851 107.28894043 633.81292725 C114.19045052 620.34520843 121.33816267 607.0551293 129 594 C129.43086914 593.26539551 129.86173828 592.53079102 130.30566406 591.77392578 C140.51039523 574.54384722 153.04189654 558.87999366 165.1875 543 C168.52963159 538.62593536 171.83399094 534.22507874 175.125 529.8125 C184.83246659 516.82697384 194.8460773 504.09296519 205.109375 491.54296875 C207.47317203 488.65243946 209.80617817 485.7393056 212.125 482.8125 C216.95164535 476.76404694 221.97778658 470.88576892 227 465 C227.75168457 464.11658936 227.75168457 464.11658936 228.51855469 463.21533203 C234.18426958 456.55730662 239.88160911 449.94034928 245.76953125 443.4765625 C247.63634182 441.40378159 249.47394526 439.3115006 251.3046875 437.20703125 C260.2959876 426.91548038 269.55878663 416.84000493 280 408 C280.93070313 407.19304687 281.86140625 406.38609375 282.8203125 405.5546875 C303.02584929 388.30348507 328.26392158 371.25930073 355.81640625 371.74609375 C366.72248321 372.61590357 374.10799378 377.31179585 381.16796875 385.4921875 C390.40971287 398.14293318 389.10639833 415.36949087 387.00021362 430.10316467 C386.2410747 434.97423046 385.41004429 439.83114476 384.5625 444.6875 C384.19683209 446.84451664 383.83194067 449.00166504 383.46777344 451.15893555 C375.02553075 500.79160658 365.05333445 550.16513746 354.734375 599.4375 C343.40548599 653.03738941 343.40548599 653.03738941 334 707 C333.87663269 707.79728516 333.75326538 708.59457031 333.62615967 709.41601562 C330.27072886 731.20021749 327.70803369 753.02310281 326 775 C325.85643066 776.72984131 325.85643066 776.72984131 325.70996094 778.49462891 C320.66100308 846.78223638 325.46378942 924.4188912 355.59570312 987.07470703 C358.24365208 992.59065355 360.83413156 998.13368289 363.42913818 1003.67468262 C364.35222684 1005.63903816 365.28306642 1007.59955669 366.21533203 1009.55957031 C377.55551696 1033.53319966 377.55551696 1033.53319966 373.9375 1046.5625 C371.59275189 1052.78304178 368.00057703 1056.48969621 362.07421875 1059.47265625 C343.56580058 1067.07551545 323.65968549 1067.04306041 305.1640625 1059.47265625 C284.0857187 1049.66211845 271.23458379 1032.1339981 263 1011 C251.72641317 980.00923456 242.4690141 947.52534785 237 915 C236.83918945 914.11425293 236.67837891 913.22850586 236.51269531 912.31591797 C227.74404534 863.0035617 235.85031942 809.72524545 240.88787365 760.34421158 C241.11087978 758.15788844 241.33286372 755.97146286 241.55483246 753.78503418 C244.94478557 720.46773421 248.87530668 687.2181904 252.90605921 653.9732517 C253.66936274 647.67454871 254.42610477 641.37507061 255.18118739 635.07537746 C256.10776277 627.34501152 257.03796891 619.61508599 257.96965122 611.88533401 C258.22965886 609.72665515 258.48910174 607.56790903 258.74843597 605.40914917 C260.2859383 592.62159184 261.82890198 579.83566165 263.62988281 567.08203125 C263.80163843 565.8562159 263.80163843 565.8562159 263.97686386 564.6056366 C264.84662038 558.60013951 266.03838007 552.71631725 267.44921875 546.8125 C267.97551923 544.1250082 268.10536239 541.72938765 268 539 C266.35 538.34 264.7 537.68 263 537 C258.9774028 539.96477647 255.94645503 543.30133626 252.9375 547.25 C252.46272217 547.86568848 251.98794434 548.48137695 251.4987793 549.11572266 C250.49519224 550.4208624 249.49467464 551.72836752 248.49707031 553.03808594 C247.06793774 554.91096744 245.62506431 556.77245642 244.1796875 558.6328125 C223.02041148 586.09987956 205.48523777 616.03959617 190 647 C189.58057129 647.82564453 189.16114258 648.65128906 188.72900391 649.50195312 C153.12764636 719.76499849 141.28641045 799.23081415 128.37547493 876.03096676 C125.06606058 895.71060869 121.65327033 915.35642502 117.7578125 934.9296875 C117.59676907 935.74532291 117.43572563 936.56095833 117.26980209 937.40130997 C111.52998826 966.35200108 111.52998826 966.35200108 106.3125 976.375 C105.9721875 977.03927002 105.631875 977.70354004 105.28125 978.38793945 C99.45926791 989.22079567 90.51987055 996.21346557 79.0625 1000.3125 C65.5023479 1004.16213762 51.51906527 1003.00742496 39 996.421875 C26.53799877 988.9040373 18.63554186 978.75324551 14.625 964.65698242 C13.60504851 960.32099334 13.20638385 955.99719559 12.875 951.5625 C12.76478516 950.2950293 12.76478516 950.2950293 12.65234375 949.00195312 C11.385379 933.72058004 10.82798345 918.38066854 10.46484375 903.0546875 C10.44418287 902.20856777 10.423522 901.36244804 10.40223503 900.49068832 C10.00896831 884.03953341 9.86200697 867.58798311 9.75390625 851.1328125 C9.74551098 849.87624596 9.73711571 848.61967941 9.72846603 847.3250351 C9.65126262 835.61663996 9.58051203 823.90821711 9.52319336 812.19970703 C9.49099693 805.70730037 9.44968157 799.21500084 9.40299797 792.72268295 C9.38728653 790.30002658 9.3748289 787.87734626 9.36609077 785.45465469 C9.31906049 772.63705265 9.02448036 759.85690962 8.22631836 747.06201172 C8.166055 745.91186647 8.10579165 744.76172123 8.04370213 743.5767231 C7.96816577 742.5110404 7.89262941 741.4453577 7.81480408 740.34738159 C7.75437392 739.40907438 7.69394377 738.47076717 7.6316824 737.50402641 C6.82690459 734.31383953 5.52694057 733.05533115 3 731 C-0.86375905 729.626219 -2.49560299 729.78322938 -6.28125 731.41015625 C-11.12395777 734.3253326 -13.71531751 738.74989251 -16.6875 743.4375 C-17.58988403 744.83053345 -17.58988403 744.83053345 -18.51049805 746.25170898 C-26.75197866 759.10971917 -34.48712868 772.2097335 -40.8125 786.125 C-41.13710205 786.83857666 -41.4617041 787.55215332 -41.79614258 788.28735352 C-48.84693264 804.37136044 -54.06884119 821.1275534 -59.0625 837.9375 C-59.38159332 839.00702911 -59.70068665 840.07655823 -60.02944946 841.17849731 C-70.88030185 877.61030366 -80.69332379 914.27269307 -89.0065918 951.36889648 C-93.27349332 970.24084224 -97.85956303 987.77443255 -114.79296875 999.2109375 C-130.74150154 1008.25637401 -154.15750826 1006.6542831 -171.2109375 1002.15234375 C-184.9402964 997.8813719 -195.96104699 990.80361281 -203 978 C-206.24300019 970.49851234 -208.07106176 962.87777761 -209.484375 954.85546875 C-209.69294128 953.6984697 -209.90150757 952.54147064 -210.11639404 951.34941101 C-212.55188055 937.43362428 -214.2924082 923.43082077 -215.99353027 909.41070557 C-216.33846255 906.58877864 -216.69319217 903.76811646 -217.0477829 900.9473896 C-220.51858322 873.28899624 -220.51858322 873.28899624 -221 860 C-250.24799146 863.56075087 -250.24799146 863.56075087 -276 877 C-276.71285156 877.54785156 -277.42570313 878.09570312 -278.16015625 878.66015625 C-291.49943287 890.35451244 -295.23206307 909.6952649 -297.02758789 926.49194336 C-297.11205453 927.26966315 -297.19652117 928.04738295 -297.2835474 928.84867001 C-298.12339864 936.80464918 -298.68433461 944.77046909 -299.18359375 952.75390625 C-299.28449753 954.3217519 -299.38564514 955.88958187 -299.48701477 957.45739746 C-299.75509958 961.62854466 -300.01682002 965.8000649 -300.27622986 969.9717598 C-300.43898076 972.5862879 -300.60310422 975.20072712 -300.76745605 977.81515503 C-302.90256071 1011.86064836 -304.66243176 1045.91377226 -306 1080 C-306.03760437 1080.94083435 -306.07520874 1081.8816687 -306.11395264 1082.85101318 C-309.93566142 1179.10037995 -306.24735125 1276.2657712 -288 1371 C-287.78890594 1372.10671051 -287.78890594 1372.10671051 -287.57354736 1373.23577881 C-279.94726537 1413.17280205 -266.904159 1451.21860533 -251.53668213 1488.78268433 C-249.66862658 1493.34939462 -247.8224692 1497.92449931 -245.98561096 1502.50384521 C-244.57492889 1506.01606665 -243.15574883 1509.52481762 -241.73495483 1513.03295898 C-241.04699359 1514.73539399 -240.36186401 1516.43897656 -239.67984009 1518.14379883 C-232.30361538 1536.55865747 -224.85996192 1552.56544448 -205.71948242 1561.00561523 C-198.20077063 1564.02067721 -190.9712951 1564.91858635 -182.9375 1565.5625 C-170.31548577 1566.61151459 -156.83226559 1567.94568565 -147.484375 1577.55859375 C-144.11168528 1582.51074732 -144.1025114 1588.24177668 -145 1594 C-149.59638406 1608.17041906 -162.12766324 1617.48076295 -174.75 1624.25 C-197.30870096 1635.05815046 -224.30165408 1634.39098443 -248 1628 C-248.9895166 1627.74307373 -248.9895166 1627.74307373 -249.99902344 1627.48095703 C-266.09302496 1623.17405328 -281.28301182 1614.66824262 -294 1604 C-294.91910156 1603.25492188 -295.83820313 1602.50984375 -296.78515625 1601.7421875 C-310.07222078 1590.41734769 -318.3718082 1575.52929153 -326.67333984 1560.40673828 C-327.80053783 1558.36185094 -328.94942852 1556.33271013 -330.11328125 1554.30859375 C-374.97716872 1474.14806604 -386.3367838 1370.9379603 -401.203125 1159.7890625 C-401.21015464 1157.54601525 -401.21724138 1155.30296817 -401.22438049 1153.05992126 C-401.24379464 1145.91494458 -401.2488171 1138.7700004 -401.25 1131.625 C-401.25044186 1130.40238842 -401.25088371 1129.17977684 -401.25133896 1127.92011642 C-401.25904508 1087.19070242 -400.64071909 1046.65100468 -398 1006 C-397.95035095 1005.23393181 -397.9007019 1004.46786362 -397.84954834 1003.67858124 C-396.36130216 980.77635969 -394.73469597 957.88481707 -393 935 C-393.82841904 935.0889151 -394.65683807 935.1778302 -395.51036072 935.2694397 C-398.62826135 935.60254287 -401.74645068 935.93276722 -404.86485291 936.26113892 C-406.86045007 936.47213309 -408.8557057 936.68634948 -410.85095215 936.90063477 C-433.75601694 939.3056124 -452.10011737 937.66051522 -470.9375 923.5 C-472.31127182 922.35648372 -473.66609008 921.18977427 -475 920 C-476.06154297 919.06027344 -476.06154297 919.06027344 -477.14453125 918.1015625 C-484.27133604 911.41109269 -488.50778027 904.52191137 -489.25 894.6875 C-488.8493659 888.77814704 -487.51326125 884.66458738 -483.5 880.25 C-474.88499519 874.00926033 -464.24007291 873.12796683 -453.98269653 872.16064453 C-450.77606021 871.85715197 -447.5732464 871.51985995 -444.36982727 871.18435669 C-442.78020796 871.01807001 -441.19043568 870.85323879 -439.60050964 870.68991089 C-413.60738873 869.08324628 -413.60738873 869.08324628 -391 858 C-382.14597448 846.97890529 -380.26767387 832.21616569 -377.9671936 818.684021 C-377.47989624 815.81931474 -376.98166508 812.95667241 -376.48120117 810.09423828 C-375.72720792 805.77464943 -374.9777435 801.45431012 -374.23193359 797.13330078 C-360.55973147 717.92886707 -345.75403516 638.96194124 -206 165 C-205.70371704 164.26755066 -205.40743408 163.53510132 -205.10217285 162.78045654 C-201.07283971 152.82706713 -196.98675548 142.89824438 -192.83599854 132.99487305 C-192.28315738 131.67567465 -191.73102144 130.35618047 -191.17962646 129.03637695 C-140.37455382 7.45903896 -140.37455382 7.45903896 -85 -16 C-56.96199285 -26.15320134 -22.10645689 -20.65560134 0 0 Z " fill="#000000" transform="translate(1265,1012)"/>
<path d="M0 0 C-1.86333245 5.84517213 -3.95363738 11.50681547 -6.40625 17.12890625 C-6.72729202 17.87252914 -7.04833405 18.61615204 -7.37910461 19.38230896 C-8.41503844 21.7776265 -9.4569695 24.17026497 -10.5 26.5625 C-10.85726166 27.38435791 -11.21452332 28.20621582 -11.58261108 29.05297852 C-19.26908964 46.73181475 -26.99937014 64.37736488 -35.75 81.5625 C-36.17385986 82.41392578 -36.59771973 83.26535156 -37.03442383 84.14257812 C-43.62847965 96.80275724 -53.29560657 101.54894114 -66.46484375 105.80078125 C-73.92450153 108.14030636 -81.42152685 110.354056 -88.91967773 112.56640625 C-131.91480464 125.2561463 -173.83067282 140.4301915 -214.3359375 159.73779297 C-216.74596995 160.87964302 -219.16535109 161.995545 -221.59375 163.09765625 C-232.46846725 168.05508187 -242.9109025 173.73083179 -253.35449219 179.53466797 C-255.78448688 180.88062848 -258.22206384 182.21113675 -260.6640625 183.53515625 C-295.10208249 202.28436568 -327.94764925 224.81744623 -358 250 C-358.5151416 250.43022461 -359.0302832 250.86044922 -359.56103516 251.30371094 C-365.96990121 256.66122637 -372.30410747 262.08399187 -378.47753906 267.71313477 C-380.01649822 269.10835645 -381.56328089 270.49508881 -383.12353516 271.86645508 C-390.43008436 278.31232705 -397.31078499 285.15843624 -404.18725586 292.05688477 C-406.19076986 294.06577864 -408.19960152 296.06924389 -410.20898438 298.07226562 C-416.35158566 304.21134428 -422.41094385 310.34535964 -428 317 C-429.04435701 318.1923144 -430.0912535 319.38240903 -431.140625 320.5703125 C-437.9182987 328.30239112 -444.43890072 336.17787366 -450.70898438 344.32666016 C-451.95917637 345.94708677 -453.22007278 347.55853807 -454.484375 349.16796875 C-508.09932546 417.89413932 -545.94549564 498.48061903 -594.70574951 701.5958252 C-594.97903145 703.82867634 -595.26080026 706.06031305 -595.54345703 708.29199219 C-601.00641016 752.42680729 -600.39840556 799.90094164 -595 844 C-594.90054077 844.82169678 -594.80108154 845.64339355 -594.6986084 846.48999023 C-591.67626393 871.23943913 -587.56109222 895.69574733 -582 920 C-581.85173767 920.65407837 -581.70347534 921.30815674 -581.55072021 921.98205566 C-567.20437652 985.17637942 -543.26390159 1047.4723778 -510.49365234 1103.43896484 C-509.05629161 1105.9034817 -507.64326077 1108.38019087 -506.23828125 1110.86328125 C-495.8149488 1129.22305541 -484.41191075 1146.92438477 -472 1164 C-471.44844238 1164.7640918 -470.89688477 1165.52818359 -470.32861328 1166.31542969 C-462.6800525 1176.90043369 -454.76672296 1187.20137485 -446.43701172 1197.25878906 C-444.35496868 1199.7815772 -442.30593205 1202.3309177 -440.25 1204.875 C-436.65716766 1209.2640461 -432.91693674 1213.49480786 -429.09765625 1217.6875 C-427.30492554 1219.66384372 -425.55204773 1221.6645673 -423.8125 1223.6875 C-414.80161427 1233.98858073 -405.28536377 1243.81019207 -395.625 1253.5 C-394.79331299 1254.3362793 -393.96162598 1255.17255859 -393.10473633 1256.03417969 C-388.79716701 1260.33097685 -384.41816636 1264.47385081 -379.8046875 1268.44042969 C-377.20384717 1270.68801735 -374.70281812 1273.03206032 -372.1875 1275.375 C-366.64342013 1280.4905942 -360.8797901 1285.27340744 -355 1290 C-353.77109981 1291.00785316 -352.54330207 1292.01705155 -351.31640625 1293.02734375 C-320.29984711 1318.52003797 -286.89190188 1339.9419531 -252.05859375 1359.8203125 C-244.17109725 1364.34718965 -236.8645739 1368.97865231 -230 1375 C-229.17242188 1375.68449219 -228.34484375 1376.36898437 -227.4921875 1377.07421875 C-209.443357 1392.44608204 -202.58006689 1411.47248335 -199.22265625 1434.14453125 C-196.96294629 1449.19989904 -193.37417622 1463.68812509 -189.35302734 1478.35449219 C-189.13329254 1479.16084106 -188.91355774 1479.96718994 -188.68716431 1480.79797363 C-188.27060457 1482.32205692 -187.84928381 1483.8448496 -187.42245483 1485.36608887 C-186.49628422 1488.74550931 -186 1491.46266601 -186 1495 C-194.84800879 1492.8046294 -203.35567908 1489.83839664 -211.875 1486.625 C-212.57107361 1486.36300812 -213.26714722 1486.10101624 -213.98431396 1485.83108521 C-249.73324478 1472.32067228 -284.87788093 1455.43592801 -317.50976562 1435.51855469 C-319.86662588 1434.08133206 -322.23534145 1432.6664331 -324.609375 1431.2578125 C-348.70654878 1416.86965548 -371.84718504 1400.76517145 -394.00390625 1383.55078125 C-395.89507027 1382.08152075 -397.79097612 1380.61858051 -399.6875 1379.15625 C-406.27122392 1374.05568267 -412.67605226 1368.78710679 -418.96826172 1363.33081055 C-422.35915308 1360.39168966 -425.79834078 1357.54221715 -429.3125 1354.75 C-436.51657575 1348.89999429 -443.1432673 1342.42141266 -449.85986328 1336.02685547 C-452.49675184 1333.52954212 -455.16053703 1331.0624048 -457.82714844 1328.59692383 C-467.7730629 1319.39107938 -477.72634475 1310.07491635 -486.49609375 1299.72265625 C-488.09105998 1297.89569493 -489.77017842 1296.19940713 -491.5 1294.5 C-495.2121233 1290.8369356 -498.59962071 1286.95145365 -502 1283 C-502.94590785 1281.91735087 -503.89258723 1280.83537557 -504.83984375 1279.75390625 C-516.68271834 1266.20713968 -528.21145497 1252.40555904 -539 1238 C-539.5043457 1237.32839844 -540.00869141 1236.65679688 -540.52832031 1235.96484375 C-596.85920272 1160.76731954 -638.88135582 1076.87010252 -695 761 C-694.98066406 759.89462891 -694.96132813 758.78925781 -694.94140625 757.65039062 C-693.39871363 676.11454826 -679.78448677 594.4965062 -613 420 C-612.57509277 419.1229541 -612.15018555 418.2459082 -611.71240234 417.34228516 C-587.43349296 367.25440432 -555.76741744 320.59232452 -520.40039062 277.70458984 C-519.10654919 276.12969428 -517.82609094 274.54382937 -516.546875 272.95703125 C-511.98636843 267.30423552 -507.23727089 261.88065688 -502.3203125 256.53515625 C-500.42718797 254.46674242 -498.57748296 252.37594124 -496.75 250.25 C-486.666468 238.72268955 -475.93884497 227.83584206 -465.125 217 C-464.53755005 216.40996185 -463.9501001 215.81992371 -463.34484863 215.21200562 C-457.61132887 209.45859029 -451.89800371 203.74102043 -445.71289062 198.46777344 C-442.95743855 196.10663064 -440.33363131 193.607001 -437.6875 191.125 C-432.86763923 186.64132731 -427.92496022 182.3837577 -422.7890625 178.26171875 C-420.31294332 176.25377336 -417.88561044 174.19905535 -415.46948242 172.11962891 C-407.92234206 165.63678441 -400.07470933 159.58969611 -392.12890625 153.60546875 C-390.1017792 152.07675459 -388.08139563 150.53956025 -386.0625 149 C-354.27012537 124.83988082 -320.39619955 103.18041851 -285.046875 84.60351562 C-281.88874158 82.94144669 -278.74136628 81.26001394 -275.59375 79.578125 C-248.21483513 65.05136401 -219.95938965 52.97958229 -191 42 C-189.89495117 41.57879883 -188.78990234 41.15759766 -187.65136719 40.72363281 C-129.89612205 18.85129052 -62.22504448 0 0 0 Z " fill="#000000" transform="translate(1047,1031)"/>
<path d="M0 0 C15.93957274 3.34216848 31.47366142 8.13002726 47 13 C47.65758301 13.20602844 48.31516602 13.41205688 48.99267578 13.62432861 C103.56057588 30.77351916 156.7477249 53.8527468 206 83 C207.3310376 83.77827148 207.3310376 83.77827148 208.68896484 84.57226562 C246.59497653 106.79092626 281.85374807 133.06798941 315.26904297 161.52783203 C317.07348818 163.06250123 318.88237519 164.59183421 320.69140625 166.12109375 C331.48973478 175.27796246 331.48973478 175.27796246 336.31385803 180.31480408 C338.04132498 182.04130179 339.84042141 183.62290392 341.69702148 185.20922852 C345.96379988 188.92011416 349.98130204 192.83661605 353.97265625 196.83984375 C354.69940048 197.56563126 355.42614471 198.29141876 356.1749115 199.03919983 C357.69962296 200.56323556 359.2230915 202.08851569 360.74536133 203.61499023 C363.05633891 205.93132463 365.37260771 208.24227078 367.68945312 210.55273438 C369.1800082 212.04395034 370.670253 213.53547653 372.16015625 215.02734375 C373.18388084 216.048032 373.18388084 216.048032 374.22828674 217.08934021 C378.13328106 221.01314566 381.86291414 225.03867692 385.473526 229.2354126 C387.71091713 231.8218125 390.04405784 234.3100621 392.375 236.8125 C396.6687538 241.46038542 400.7353184 246.24416348 404.703125 251.17578125 C406.7255113 253.66249094 408.79204745 256.10326284 410.88256836 258.53271484 C417.36390549 266.07981014 423.41089715 273.9260784 429.39453125 281.87109375 C430.92324541 283.8982208 432.46043975 285.91860437 434 287.9375 C479.9815948 348.44763057 516.36773465 416.39420325 588 736 C588.02191406 737.1255127 588.04382812 738.25102539 588.06640625 739.41064453 C589.46178057 822.00517633 577.38926672 904.83533705 543 1014 C523.80105139 1014.31820328 504.81050814 1013.46715251 485.66607666 1012.20404053 C482.74405124 1012.01310314 479.82156805 1011.82979893 476.89904022 1011.6467371 C473.3596018 1011.42477808 469.82040617 1011.19906566 466.28125 1010.97265625 C464.99263062 1010.89032242 463.70401123 1010.80798859 462.37634277 1010.72315979 C455.56822681 1010.27546356 448.78262012 1009.74270108 442 1009 C444.15570614 1001.44750432 446.76899222 994.15056403 449.5625 986.8125 C469.17055668 934.25166437 481.62631709 879.83525932 487 824 C487.16773926 822.27040039 487.16773926 822.27040039 487.33886719 820.50585938 C494.96081007 738.41969853 487.16008828 655.14136544 423 457 C422.68720093 456.3462439 422.37440186 455.69248779 422.05212402 455.0189209 C413.95126731 438.11909164 405.27862267 421.66457218 395.57861328 405.61474609 C394.13050506 403.21616289 392.70115602 400.8075849 391.27734375 398.39453125 C376.29266005 373.19852202 359.05497587 349.27949791 340.38964844 326.69384766 C338.47737024 324.36296464 336.61443338 321.99423056 334.75 319.625 C331.37264656 315.38731021 327.79426648 311.36351382 324.14453125 307.359375 C322.27606887 305.30372604 320.44306264 303.22510099 318.625 301.125 C309.98278698 291.23304237 300.94820477 281.7854634 291.64672852 272.51635742 C289.80041754 270.67545292 287.95957727 268.82919728 286.11914062 266.98242188 C280.24647708 261.10645245 274.33548199 255.38054671 268 250 C266.22429779 248.38032183 264.45291693 246.75588282 262.6875 245.125 C258.25368689 241.08597847 253.71945416 237.22493122 249.05078125 233.4609375 C246.82711326 231.66719764 244.61801522 229.86127617 242.41796875 228.0390625 C208.03816832 199.65751427 170.27430954 175.04068552 131 154 C130.14293457 153.54061035 129.28586914 153.0812207 128.40283203 152.60791016 C105.27119961 140.26582321 81.68556407 129.24904673 57.51171875 119.12890625 C56.86907074 118.85917999 56.22642273 118.58945374 55.56430054 118.31155396 C52.56755715 117.05738359 49.56425774 115.82779564 46.54296875 114.63378906 C38.8367941 111.56217962 33.78621574 107.95242661 28 102 C27.15501953 101.18595703 27.15501953 101.18595703 26.29296875 100.35546875 C7.64897654 80.92439508 6.56841918 46.25006403 2.6875 21.0625 C2.48498627 19.74986176 2.48498627 19.74986176 2.27838135 18.41070557 C1.89445155 15.91102131 1.51456646 13.41076644 1.13671875 10.91015625 C1.02135269 10.15504257 0.90598663 9.39992889 0.78712463 8.62193298 C0.35300254 5.71502088 0 2.94401898 0 0 Z " fill="#000000" transform="translate(1362,1045)"/>
<path d="M0 0 C-0.72960938 0.70898438 -1.45921875 1.41796875 -2.2109375 2.1484375 C-4.86888524 4.8659471 -7.23355873 7.67269953 -9.625 10.625 C-14.65672332 16.69687052 -20.11145499 22.30327667 -25.6875 27.875 C-26.4830127 28.67115723 -27.27852539 29.46731445 -28.09814453 30.28759766 C-32.32769301 34.47849605 -36.64172864 38.51055531 -41.15307617 42.39599609 C-43.94072773 44.81699686 -46.61994589 47.34945564 -49.3125 49.875 C-54.13236077 54.35867269 -59.07503978 58.6162423 -64.2109375 62.73828125 C-66.68705668 64.74622664 -69.11438956 66.80094465 -71.53051758 68.88037109 C-79.07208174 75.35842574 -86.91359346 81.40152713 -94.85351562 87.38134766 C-96.93329749 88.94969999 -99.00634698 90.52656531 -101.078125 92.10546875 C-110.19384989 99.02910005 -119.5085299 105.60305502 -129 112 C-129.61166016 112.41459473 -130.22332031 112.82918945 -130.85351562 113.25634766 C-204.19596224 162.94565829 -284.85916972 199.46363027 -446 232 C-446.91499268 232.0942627 -447.82998535 232.18852539 -448.77270508 232.28564453 C-459.80472348 233.29306073 -470.86884623 233.2428567 -481.9375 233.25 C-483.56581253 233.25151062 -483.56581253 233.25151062 -485.22702026 233.25305176 C-585.67792303 233.19073332 -585.67792303 233.19073332 -605.9140625 215.30859375 C-617.89818215 202.20267294 -626.01311497 185.67148674 -634.39257812 170.13964844 C-637.64283791 164.13599673 -640.95126435 158.31437805 -644.95556641 152.77392578 C-646 151 -646 151 -646 148 C-645.1080265 147.99503478 -645.1080265 147.99503478 -644.19803333 147.98996925 C-629.53080789 147.90770069 -614.8636704 147.81530184 -600.19657612 147.71247292 C-593.10283216 147.66296849 -586.0090963 147.61658709 -578.9152832 147.578125 C-540.74200828 147.46716864 -540.74200828 147.46716864 -502.6015625 146.06640625 C-501.895814 146.0268494 -501.1900655 145.98729256 -500.46293068 145.94653702 C-426.03321301 141.62338314 -352.43646836 121.46905648 -285 90 C-283.24308838 89.18426514 -283.24308838 89.18426514 -281.45068359 88.35205078 C-240.97351513 69.50382012 -202.86213234 46.45632496 -167.04296875 19.8046875 C-166.26767822 19.25425781 -165.4923877 18.70382813 -164.69360352 18.13671875 C-162.51829909 16.41114417 -160.76507698 14.73659286 -158.86694336 12.73828125 C-145.74149062 -0.17717315 -129.83715549 1.10856492 -112.61944199 1.23973846 C-108.51641934 1.25705109 -104.41442535 1.20096507 -100.31176758 1.15087891 C-93.82485189 1.0787447 -87.33885888 1.04223512 -80.8515625 1.03417969 C-70.50991759 1.01710453 -60.17934009 0.75293639 -49.84255981 0.44979858 C-33.22981774 -0.01821708 -16.61849639 -0.14087145 0 0 Z " fill="#000000" transform="translate(1730,2342)"/>
<path d="M0 0 C5.61 0 11.22 0 17 0 C17 39.93 17 79.86 17 121 C11.39 121 5.78 121 0 121 C-0.495 117.535 -0.495 117.535 -1 114 C-1.72703125 114.59748047 -1.72703125 114.59748047 -2.46875 115.20703125 C-11.26692536 122.1609737 -19.75600558 124.5865714 -31.01953125 123.78515625 C-43.01191187 122.16872497 -51.82724482 116.86440458 -60 108 C-68.30757516 97.01651115 -70.15201054 85.44012299 -69 72 C-66.85293254 60.56247714 -60.67902054 51.4565292 -51.4375 44.5 C-40.96785202 37.41886879 -30.46408201 35.8159437 -18 37 C-11.11026956 38.63786874 -6.85966321 41.81452628 -1 46 C-0.67 30.82 -0.34 15.64 0 0 Z M-47.59375 64.90625 C-51.98861347 71.44971339 -53.12157325 78.19254346 -52 86 C-49.60163651 93.8439231 -44.65792785 99.34857095 -38 104 C-31.37284938 107.34096023 -23.0955069 107.22482449 -16.07421875 105.125 C-9.01668625 101.86932492 -3.27475842 96.62727978 -0.47265625 89.2109375 C1.10829516 81.81574331 1.36781906 73.34732168 -2.6796875 66.73828125 C-8.0725056 59.63826925 -13.86130491 54.87932659 -22.890625 53.5859375 C-33.31693897 53.07798887 -41.12169819 56.72459959 -47.59375 64.90625 Z " fill="#000000" transform="translate(1611,2140)"/>
<path d="M0 0 C9.73634252 6.2677705 16.10379292 14.99718671 19.38183594 26.19482422 C21.74229581 37.45919563 20.63336776 50.3139141 14.8125 60.25 C6.8628268 71.10145505 -2.83222284 78.41471802 -16.20703125 80.78515625 C-25.96419521 81.87485235 -34.81309939 80.55552088 -43.1875 75.25 C-44.8375 73.93 -46.4875 72.61 -48.1875 71.25 C-48.5175 82.47 -48.8475 93.69 -49.1875 105.25 C-54.4675 105.25 -59.7475 105.25 -65.1875 105.25 C-65.1875 70.6 -65.1875 35.95 -65.1875 0.25 C-59.9075 0.25 -54.6275 0.25 -49.1875 0.25 C-48.8575 1.9 -48.5275 3.55 -48.1875 5.25 C-47.72601562 4.79109375 -47.26453125 4.3321875 -46.7890625 3.859375 C-33.38416669 -8.75076414 -15.69801211 -8.8154002 0 0 Z M-44.78125 22.2265625 C-49.48147691 28.98966677 -49.96719799 35.22872344 -49.1875 43.25 C-47.63289992 50.46864687 -43.59728308 55.7670131 -37.5625 60 C-31.4617986 63.55012568 -24.54463984 64.93196783 -17.5625 63.75 C-9.22900156 61.37964892 -3.79126793 56.55439343 0.71875 49.30078125 C4.05777456 43.0401102 3.9525055 34.56279188 2.1640625 27.796875 C-1.19929043 20.49523701 -7.20587442 14.83443688 -14.671875 11.9140625 C-26.76549829 8.72164641 -37.12644803 12.51362981 -44.78125 22.2265625 Z " fill="#000000" transform="translate(1356.1875,2182.75)"/>
<path d="M0 0 C1.24878992 1.03936552 2.4786728 2.10191548 3.6875 3.1875 C4.59435547 3.95707031 4.59435547 3.95707031 5.51953125 4.7421875 C13.76371163 12.24995961 18.06111848 22.01037403 18.90234375 32.9921875 C19.33857898 46.42823251 15.68322177 57.45260763 6.6171875 67.4765625 C-2.29032231 76.00095361 -13.23499819 79.99674903 -25.47265625 80.25390625 C-38.03421978 79.75982807 -48.38801311 75.01934516 -57.3125 66.1875 C-65.99624079 56.02916171 -69.32155452 44.45469829 -68.3125 31.1875 C-66.2443898 17.90252091 -59.96849942 7.88891891 -49.375 -0.3125 C-35.1436239 -9.95310961 -14.05923239 -10.00781237 0 0 Z M-45.3125 19.1875 C-50.3018217 26.61346718 -52.5120768 33.42188686 -50.921875 42.390625 C-48.92238095 49.7221032 -44.43439848 55.28892488 -38.24609375 59.640625 C-31.24636734 63.30162371 -23.00858158 63.6048153 -15.50390625 61.33984375 C-8.12975797 58.02877261 -2.58738042 52.71581004 0.625 45.25 C2.98090577 37.75792698 2.19879333 30.18527186 -1.3125 23.1875 C-5.79677453 16.65227821 -11.3607175 11.75442583 -19.3125 10.1875 C-29.80162787 9.34055179 -38.14689765 11.09786621 -45.3125 19.1875 Z " fill="#000000" transform="translate(1993.3125,2183.8125)"/>
<path d="M0 0 C1.24878992 1.03936552 2.4786728 2.10191548 3.6875 3.1875 C4.59435547 3.95707031 4.59435547 3.95707031 5.51953125 4.7421875 C13.76371163 12.24995961 18.06111848 22.01037403 18.90234375 32.9921875 C19.33857898 46.42823251 15.68322177 57.45260763 6.6171875 67.4765625 C-2.29032231 76.00095361 -13.23499819 79.99674903 -25.47265625 80.25390625 C-38.03421978 79.75982807 -48.38801311 75.01934516 -57.3125 66.1875 C-65.99624079 56.02916171 -69.32155452 44.45469829 -68.3125 31.1875 C-66.2443898 17.90252091 -59.96849942 7.88891891 -49.375 -0.3125 C-35.1436239 -9.95310961 -14.05923239 -10.00781237 0 0 Z M-45.3125 19.1875 C-50.3018217 26.61346718 -52.5120768 33.42188686 -50.921875 42.390625 C-48.92238095 49.7221032 -44.43439848 55.28892488 -38.24609375 59.640625 C-31.24636734 63.30162371 -23.00858158 63.6048153 -15.50390625 61.33984375 C-8.12975797 58.02877261 -2.58738042 52.71581004 0.625 45.25 C2.98090577 37.75792698 2.19879333 30.18527186 -1.3125 23.1875 C-5.79677453 16.65227821 -11.3607175 11.75442583 -19.3125 10.1875 C-29.80162787 9.34055179 -38.14689765 11.09786621 -45.3125 19.1875 Z " fill="#000000" transform="translate(1508.3125,2183.8125)"/>
<path d="M0 0 C1.25177314 1.03577071 2.4815307 2.09874154 3.6875 3.1875 C4.62916016 4.02667969 4.62916016 4.02667969 5.58984375 4.8828125 C9.55881147 8.62522181 12.21078059 12.33312996 14.6875 17.1875 C12.44017898 18.02874316 10.19011215 18.86064832 7.9375 19.6875 C7.30328125 19.92597656 6.6690625 20.16445312 6.015625 20.41015625 C2.65463393 21.63551758 0.31878413 22.1875 -3.3125 22.1875 C-4.52956034 20.74018501 -5.74073948 19.28639568 -6.890625 17.78515625 C-10.7479399 13.4509755 -16.13140972 11.49308505 -21.79296875 10.94921875 C-29.92424745 10.72628326 -35.21557052 12.67347509 -42.0625 16.875 C-47.5339055 22.49838899 -50.08021466 28.59215089 -50.44140625 36.41796875 C-50.11547186 43.42061981 -48.07897022 49.55680041 -43.15625 54.6484375 C-36.54704751 60.16544127 -30.06919864 62.03539888 -21.49609375 61.671875 C-14.78228955 60.65038823 -9.5781946 57.78576723 -5 52.8125 C-3.6696875 51.513125 -3.6696875 51.513125 -2.3125 50.1875 C1.61078115 50.54477474 5.28438218 51.98424008 9 53.25 C10.06863281 53.61222656 11.13726563 53.97445312 12.23828125 54.34765625 C13.04652344 54.62480469 13.85476563 54.90195313 14.6875 55.1875 C9.35496899 66.6291442 0.46506521 73.69499973 -11.1015625 78.2109375 C-22.59722761 81.70718601 -33.8116022 80.52581312 -44.5625 75.4375 C-54.62911044 70.0340033 -62.35432538 62.47183276 -66.1875 51.4375 C-69.55694454 39.59276553 -69.30274985 27.78953394 -64.05859375 16.484375 C-58.31228396 6.27567204 -49.93470244 -1.58287525 -38.875 -5.625 C-25.93753297 -9.09359671 -11.05001371 -7.86575403 0 0 Z " fill="#000000" transform="translate(1800.3125,2183.8125)"/>
<path d="M0 0 C7.66383343 5.79300471 10.69368052 14.62159772 12.13671875 23.81640625 C12.39266977 28.04984813 12.37060103 32.26794029 12.33203125 36.5078125 C12.32920135 37.6936644 12.32637146 38.8795163 12.32345581 40.1013031 C12.31232869 43.86061009 12.28723773 47.61967218 12.26171875 51.37890625 C12.25167931 53.93944967 12.24255515 56.49999684 12.234375 59.06054688 C12.21241379 65.31259327 12.17793551 71.56445834 12.13671875 77.81640625 C6.52671875 77.81640625 0.91671875 77.81640625 -4.86328125 77.81640625 C-4.87262695 76.21200684 -4.88197266 74.60760742 -4.89160156 72.95458984 C-4.93151402 66.99434788 -4.99727774 61.03462137 -5.07080078 55.07470703 C-5.09900284 52.49664946 -5.12022112 49.91850554 -5.13427734 47.34033203 C-5.15571634 43.6313865 -5.20237521 39.92347832 -5.25390625 36.21484375 C-5.25513489 35.06462738 -5.25636353 33.91441101 -5.25762939 32.7293396 C-5.37193333 26.46498174 -5.617762 22.5562935 -9.86328125 17.81640625 C-14.21484988 13.87927272 -17.77792403 13.18649647 -23.4609375 13.42578125 C-27.86204403 14.14140833 -30.56491513 16.39256945 -33.49641418 19.60736084 C-35.21184678 22.37973615 -35.25907541 24.16292725 -35.2956543 27.41113281 C-35.31544846 28.5319928 -35.33524261 29.65285278 -35.3556366 30.80767822 C-35.36522148 32.61410797 -35.36522148 32.61410797 -35.375 34.45703125 C-35.3929512 35.69434998 -35.4109024 36.9316687 -35.42939758 38.20648193 C-35.47438291 41.48783476 -35.50668515 44.76899036 -35.53283691 48.05053711 C-35.56267304 51.40233147 -35.60944193 54.75384168 -35.65429688 58.10546875 C-35.73932692 64.6756938 -35.80609406 71.24588224 -35.86328125 77.81640625 C-41.14328125 77.81640625 -46.42328125 77.81640625 -51.86328125 77.81640625 C-51.86328125 52.07640625 -51.86328125 26.33640625 -51.86328125 -0.18359375 C-46.58328125 -0.18359375 -41.30328125 -0.18359375 -35.86328125 -0.18359375 C-35.53328125 1.46640625 -35.20328125 3.11640625 -34.86328125 4.81640625 C-34.18265625 3.88828125 -33.50203125 2.96015625 -32.80078125 2.00390625 C-24.73853568 -7.44299091 -9.78444302 -6.21527513 0 0 Z " fill="#000000" transform="translate(2080.86328125,2183.18359375)"/>
<path d="M0 0 C5.28 0 10.56 0 16 0 C16.01458252 1.41216797 16.02916504 2.82433594 16.04418945 4.27929688 C16.10237111 9.5425691 16.17960304 14.8054224 16.26245117 20.06835938 C16.29560715 22.34172746 16.32366783 24.61517602 16.34643555 26.88867188 C16.3801529 30.16571185 16.43247842 33.44202056 16.48828125 36.71875 C16.49467117 37.72740112 16.5010611 38.73605225 16.50764465 39.77526855 C16.63767957 46.08442621 16.93928683 52.63389826 21.41596985 57.55725098 C24.87577124 60.57195842 27.6319445 61.86587691 32.1875 62.3125 C36.75512413 61.93810458 40.42547741 60.94068972 44 58 C48.47617602 51.8517587 48.60088128 46.62240821 48.609375 39.16015625 C48.62591125 38.03806259 48.64244751 36.91596893 48.65948486 35.75987244 C48.70787028 32.1940254 48.72931578 28.62860461 48.75 25.0625 C48.77816744 22.63734846 48.80809594 20.21221669 48.83984375 17.78710938 C48.91362738 11.858108 48.96326031 5.92934195 49 0 C54.61 0 60.22 0 66 0 C66.04969117 6.93765232 66.08585709 13.87519944 66.10986328 20.81298828 C66.11987842 23.16977749 66.13349442 25.52655441 66.15087891 27.88330078 C66.17532519 31.28421068 66.18652831 34.68495531 66.1953125 38.0859375 C66.20563507 39.12801361 66.21595764 40.17008972 66.22659302 41.2437439 C66.22823363 52.10735805 64.83237423 61.26723028 58 70 C49.94610259 77.7598403 40.98321035 80 30 80 C20.60771047 79.15574926 13.01975454 75.8137805 6.5390625 68.93359375 C1.85403004 63.04757582 -0.13063014 56.95473906 -0.11352539 49.49707031 C-0.11344986 48.39623108 -0.11337433 47.29539185 -0.11329651 46.16119385 C-0.10813522 44.97878113 -0.10297394 43.79636841 -0.09765625 42.578125 C-0.0962413 41.36300232 -0.09482635 40.14787964 -0.09336853 38.89593506 C-0.08776988 35.01393169 -0.0752176 31.13198594 -0.0625 27.25 C-0.05748483 24.61849042 -0.05292195 21.98697993 -0.04882812 19.35546875 C-0.03780088 12.90362362 -0.02053714 6.45182158 0 0 Z " fill="#000000" transform="translate(1650,2183)"/>
<path d="M0 0 C4.23275105 2.47943576 7.38401385 6.15384504 9.625 10.5 C9.625 11.82 9.625 13.14 9.625 14.5 C7.71094633 15.17413211 5.79363974 15.8390332 3.875 16.5 C2.80765625 16.87125 1.7403125 17.2425 0.640625 17.625 C-2.375 18.5 -2.375 18.5 -6.375 18.5 C-6.705 17.84 -7.035 17.18 -7.375 16.5 C-9.355 16.5 -11.335 16.5 -13.375 16.5 C-13.705 18.81 -14.035 21.12 -14.375 23.5 C-13.58029297 23.88091797 -13.58029297 23.88091797 -12.76953125 24.26953125 C-2.27875501 29.6603869 8.46608456 35.57991908 12.96484375 47.05078125 C14.91978225 54.30371875 14.14688688 61.31548728 11.08984375 68.13671875 C7.18548674 74.43574805 1.77306733 78.63646104 -5.375 80.5 C-14.0548248 81.54642558 -21.19911314 80.67753862 -28.375 75.5 C-32.1061476 72.09464907 -35.03793187 68.44715207 -36.375 63.5 C-36.375 62.18 -36.375 60.86 -36.375 59.5 C-34.29452703 58.9678559 -32.21047707 58.44968214 -30.125 57.9375 C-28.96484375 57.64746094 -27.8046875 57.35742188 -26.609375 57.05859375 C-23.66510055 56.55010191 -22.08262934 56.32108005 -19.375 57.5 C-18.941875 58.4590625 -18.941875 58.4590625 -18.5 59.4375 C-17.47436147 61.77263288 -17.47436147 61.77263288 -14.625 62.9375 C-10.51100343 63.64953787 -8.822618 62.74496056 -5.375 60.5 C-3.88001087 57.51002175 -4.25922554 54.79957225 -4.375 51.5 C-5.01825237 48.45923286 -5.01825237 48.45923286 -7.03515625 47.55078125 C-8.19337891 47.03064453 -8.19337891 47.03064453 -9.375 46.5 C-11.53367805 45.25110964 -13.67835073 43.97785846 -15.8125 42.6875 C-16.92496094 42.02105469 -18.03742187 41.35460938 -19.18359375 40.66796875 C-24.64522167 36.95780535 -30.21538702 32.02081003 -31.9140625 25.3984375 C-32.91140392 18.6489874 -31.86283827 13.31036118 -28.6875 7.3125 C-21.58847572 -1.32144845 -10.61612652 -4.6612393 0 0 Z " fill="#000000" transform="translate(2149.375,2182.5)"/>
<path d="M0 0 C5.61 0 11.22 0 17 0 C17 9.57 17 19.14 17 29 C21.62 29 26.24 29 31 29 C31 34.61 31 40.22 31 46 C26.38 46 21.76 46 17 46 C17 66.13 17 86.26 17 107 C11.39 107 5.78 107 0 107 C0 86.87 0 66.74 0 46 C-4.62 46 -9.24 46 -14 46 C-14 40.39 -14 34.78 -14 29 C-9.38 29 -4.76 29 0 29 C0 19.43 0 9.86 0 0 Z " fill="#000000" transform="translate(1841,2154)"/>
<path d="M0 0 C0 5.61 0 11.22 0 17 C-1.670625 17.495 -3.34125 17.99 -5.0625 18.5 C-10.98445182 20.67214449 -14.82675764 23.50718647 -18 29 C-20.67397133 35.38013783 -21.46137055 41.19369904 -21.51171875 48.06640625 C-21.52966995 48.98590561 -21.54762115 49.90540497 -21.56611633 50.85276794 C-21.61979261 53.75596692 -21.65397681 56.65900561 -21.6875 59.5625 C-21.72071084 61.54494398 -21.75520392 63.52736692 -21.79101562 65.50976562 C-21.875494 70.33972724 -21.94250712 75.16964486 -22 80 C-27.28 80 -32.56 80 -38 80 C-38 54.26 -38 28.52 -38 2 C-32.72 2 -27.44 2 -22 2 C-21.67 4.64 -21.34 7.28 -21 10 C-20.52691406 9.52949219 -20.05382813 9.05898437 -19.56640625 8.57421875 C-13.63443834 2.98914955 -8.25258881 0 0 0 Z " fill="#000000" transform="translate(1432,2181)"/>
<path d="M0 0 C5.61 0 11.22 0 17 0 C17 25.74 17 51.48 17 78 C11.39 78 5.78 78 0 78 C0 52.26 0 26.52 0 0 Z " fill="#000000" transform="translate(1890,2183)"/>
<path d="M0 0 C22.44 0 44.88 0 68 0 C68 1.65 68 3.3 68 5 C47.21 5 26.42 5 5 5 C5 22.16 5 39.32 5 57 C3.35 57 1.7 57 0 57 C0 38.19 0 19.38 0 0 Z " fill="#000000" transform="translate(1212,2137)"/>
<path d="M0 0 C22.11 0 44.22 0 67 0 C67 18.81 67 37.62 67 57 C65.35 57 63.7 57 62 57 C62 39.84 62 22.68 62 5 C41.54 5 21.08 5 0 5 C0 3.35 0 1.7 0 0 Z " fill="#000000" transform="translate(2131,2135)"/>
<path d="M0 0 C1.65 0 3.3 0 5 0 C5 16.17 5 32.34 5 49 C25.79 49 46.58 49 68 49 C68 50.65 68 52.3 68 54 C45.56 54 23.12 54 0 54 C0 36.18 0 18.36 0 0 Z " fill="#000000" transform="translate(1213,2263)"/>
<path d="M0 0 C1.65 0 3.3 0 5 0 C5.0252908 7.36897044 5.04284179 14.73792974 5.05493164 22.10693359 C5.05997003 24.61540139 5.06680084 27.12386624 5.07543945 29.63232422 C5.08752661 33.2314527 5.09323315 36.83054247 5.09765625 40.4296875 C5.10281754 41.55680145 5.10797882 42.68391541 5.11329651 43.84518433 C5.11337204 44.88611237 5.11344757 45.92704041 5.11352539 46.99951172 C5.115746 47.91884491 5.11796661 48.8381781 5.12025452 49.78536987 C5 52 5 52 4 54 C-17.78 54 -39.56 54 -62 54 C-62 52.35 -62 50.7 -62 49 C-41.87 48.67 -21.74 48.34 -1 48 C-0.67 32.16 -0.34 16.32 0 0 Z " fill="#000000" transform="translate(2193,2266)"/>
<path d="M0 0 C3.02528551 2.05976886 4.56105781 3.59796701 5.6640625 7.12109375 C6.39998491 11.39954465 6.25924041 13.49077778 4.25 17.4375 C2.01979784 19.97745246 0.35530254 21.75475478 -3.05078125 22.37109375 C-7.31020603 22.49615458 -10.12290024 22.39700198 -13.5 19.625 C-16.94930031 16.00323468 -17.3018252 14.04825122 -17.2109375 9.03125 C-16.894476 5.98384298 -15.98647401 4.31755301 -14 2 C-9.31896837 -1.26583602 -5.33632027 -1.75681326 0 0 Z " fill="#000000" transform="translate(1904,2152)"/>
</svg>
